<svg xmlns="http://www.w3.org/2000/svg" viewBox="0 0 150 150"><defs><style>.cls-1{fill:#5f36b0;}.cls-2{fill:#fbfbfc;}.cls-3{fill:#b296ec;}.cls-4{fill:#6139b1;}.cls-5{fill:#5f39b1;}</style></defs><g id="Layer_2" data-name="Layer 2"><g id="Layer_1-2" data-name="Layer 1"><path class="cls-1" d="M80.2,150H69.5c-.2-.4-.6-.3-.9-.3a95.2,95.2,0,0,1-10.5-1.6,72.3,72.3,0,0,1-38-22.2A72.4,72.4,0,0,1,.7,85.6,23.2,23.2,0,0,0,0,81V70c.4-.2.2-.6.3-.9A90.5,90.5,0,0,1,2.9,54.4,73.1,73.1,0,0,1,24.3,19.6,74,74,0,0,1,64.1.7,14.1,14.1,0,0,0,68.2,0h12c.2.4.6.2.9.2s3.4.3,5.1.6c17.6,2.8,32.4,10.6,44.4,23.8A73.8,73.8,0,0,1,149.3,65a23.2,23.2,0,0,0,.7,5.2V80c-.6,1.3-.4,2.8-.6,4.2a74.5,74.5,0,0,1-21.5,43.9,73.8,73.8,0,0,1-42.7,21.2A21.5,21.5,0,0,0,80.2,150ZM68.5,29.3H61.6c-2.9,0-3.7.8-3.7,3.7,0,.4.3,1-.2,1.2s-.8-.3-1.1-.6a25.9,25.9,0,0,0-16.2-6.2A23.7,23.7,0,0,0,17.5,42a58.3,58.3,0,0,0-4.2,20.2,71.1,71.1,0,0,0,3,23.8A25.2,25.2,0,0,0,24,98c8,6.8,19.1,7,27.5,2.7a22.6,22.6,0,0,0,5.2-3.5c.2-.2.8-1,1,0a6.5,6.5,0,0,1-3.3,7,11.5,11.5,0,0,1-4.8,1c-8.3.6-16.5-.5-24.6-1.8-2.7-.5-3.9.5-3.9,3.2v15.9c0,4.3-.5,4.1,3.9,5.2a112.2,112.2,0,0,0,28.2,3.4A61.5,61.5,0,0,0,68.6,129c6.5-2,12-5.4,15.7-11.3l1.5.5a34.2,34.2,0,0,0,13.5,4.1c10.3.9,19.7-1.5,27.4-8.5,10.1-9.2,14-20.7,11.1-34.3a34.3,34.3,0,0,0-15-22.2c-7.4-4.8-15.6-6.3-24.2-5.4-2.9.3-3.1.2-3.1-2.6V32.2a2.6,2.6,0,0,0-2.8-2.9C84.6,29.2,76.5,29.3,68.5,29.3Z"/><path class="cls-2" d="M84.3,117.7c-3.7,5.9-9.2,9.3-15.7,11.3a61.5,61.5,0,0,1-15.4,2.1A112.2,112.2,0,0,1,25,127.7c-4.4-1.1-3.9-.9-3.9-5.2V106.6c0-2.7,1.2-3.7,3.9-3.2,8.1,1.3,16.3,2.4,24.6,1.8a11.5,11.5,0,0,0,4.8-1,6.5,6.5,0,0,0,3.3-7c-.2-1-.8-.2-1,0a22.6,22.6,0,0,1-5.2,3.5C43.1,105,32,104.8,24,98a25.2,25.2,0,0,1-7.7-12,71.1,71.1,0,0,1-3-23.8A58.3,58.3,0,0,1,17.5,42,23.7,23.7,0,0,1,40.4,27.4a25.9,25.9,0,0,1,16.2,6.2c.3.3.6.8,1.1.6s.2-.8.2-1.2c0-2.9.8-3.7,3.7-3.7h6.9a28.2,28.2,0,0,0-1,5.8V82.6a69.9,69.9,0,0,0,.7,10.2c1.4,8.3,4.8,15.6,11.4,21.2C81.1,115.2,82.8,116.3,84.3,117.7Zm-37.1-52a71.2,71.2,0,0,0,0,8,4.1,4.1,0,0,0,3.4,4.1,8.6,8.6,0,0,0,3.9-.1,3.7,3.7,0,0,0,3.2-3.5,89.8,89.8,0,0,0,.1-16.4c-.3-3.6-1.7-4.8-5.3-4.7H51.3a4.3,4.3,0,0,0-4.2,4.3C47,60.1,47.1,62.8,47.2,65.7Z"/><path class="cls-3" d="M84.3,117.7c-1.5-1.4-3.2-2.5-4.7-3.7-6.6-5.6-10-12.9-11.4-21.2a69.9,69.9,0,0,1-.7-10.2V35.1a28.2,28.2,0,0,1,1-5.8c8,0,16.1-.1,24.2,0a2.6,2.6,0,0,1,2.8,2.9V49.3c0,2.8.2,2.9,3.1,2.6,8.6-.9,16.8.6,24.2,5.4a34.3,34.3,0,0,1,15,22.2c2.9,13.6-1,25.1-11.1,34.3-7.7,7-17.1,9.4-27.4,8.5a34.2,34.2,0,0,1-13.5-4.1ZM95.5,83.8a17.8,17.8,0,0,0,.6,5.7c.9,4.2,3.8,6.1,8,5.4a7.5,7.5,0,0,0,6.4-6.8c.2-3.8-1.9-6.9-5.2-7.7a7.2,7.2,0,0,0-5.2.7,4.5,4.5,0,0,1-2.8.4c-.6-.1-1.1-1.1-1.7-.5s-.1,1.3-.1,2Z"/><path class="cls-4" d="M47.2,65.7c-.1-2.9-.2-5.6-.1-8.3a4.3,4.3,0,0,1,4.2-4.3h1.2c3.6-.1,5,1.1,5.3,4.7a89.8,89.8,0,0,1-.1,16.4,3.7,3.7,0,0,1-3.2,3.5,8.6,8.6,0,0,1-3.9.1,4.1,4.1,0,0,1-3.4-4.1A71.2,71.2,0,0,1,47.2,65.7Z"/><path class="cls-5" d="M95.5,83.8V83c0-.7-.2-1.6.1-2s1.1.4,1.7.5a4.5,4.5,0,0,0,2.8-.4,7.2,7.2,0,0,1,5.2-.7c3.3.8,5.4,3.9,5.2,7.7a7.5,7.5,0,0,1-6.4,6.8c-4.2.7-7.1-1.2-8-5.4A17.8,17.8,0,0,1,95.5,83.8Z"/></g></g></svg>